<svg width="220" height="83" viewBox="0 0 220 83" fill="none" xmlns="http://www.w3.org/2000/svg">
<path d="M9.22523 53H1.47808L13.2825 18.8056H22.5991L34.3868 53H26.6396L18.0744 26.6196H17.8072L9.22523 53ZM8.74104 39.5593H27.0404V45.2028H8.74104V39.5593ZM38.5025 18.8056H47.4184L56.8352 41.78H57.2359L66.6527 18.8056H75.5686V53H68.5561V30.7436H68.2723L59.4231 52.833H54.648L45.7988 30.6601H45.515V53H38.5025V18.8056ZM87.4189 53H79.6718L91.4762 18.8056H100.793L112.58 53H104.833L96.2681 26.6196H96.0009L87.4189 53ZM86.9347 39.5593H105.234V45.2028H86.9347V39.5593ZM122.59 53H114.843L126.647 18.8056H135.964L147.752 53H140.004L131.439 26.6196H131.172L122.59 53ZM122.106 39.5593H140.405V45.2028H122.106V39.5593ZM180.468 18.8056V53H174.224L159.347 31.4783H159.097V53H151.867V18.8056H158.212L172.972 40.3107H173.272V18.8056H180.468ZM192.335 53H184.588L196.393 18.8056H205.709L217.497 53H209.75L201.184 26.6196H200.917L192.335 53ZM191.851 39.5593H210.15V45.2028H191.851V39.5593Z" fill="white"/>
<path d="M111.438 75.8904V62.1232H119.747V63.6021H113.106V68.2539H119.317V69.7328H113.106V74.4115H119.855V75.8904H111.438ZM123.559 62.1232L127.108 67.8505H127.216L130.765 62.1232H132.728L128.399 69.0068L132.728 75.8904H130.765L127.216 70.2706H127.108L123.559 75.8904H121.596L126.032 69.0068L121.596 62.1232H123.559ZM145.754 66.4254H144.087C143.988 65.9459 143.816 65.5246 143.569 65.1616C143.327 64.7986 143.031 64.4939 142.682 64.2474C142.337 63.9964 141.954 63.8082 141.532 63.6827C141.111 63.5573 140.672 63.4945 140.215 63.4945C139.381 63.4945 138.626 63.7051 137.949 64.1264C137.277 64.5477 136.742 65.1684 136.343 65.9885C135.948 66.8086 135.751 67.8147 135.751 69.0068C135.751 70.1989 135.948 71.205 136.343 72.0251C136.742 72.8452 137.277 73.4659 137.949 73.8871C138.626 74.3084 139.381 74.519 140.215 74.519C140.672 74.519 141.111 74.4563 141.532 74.3308C141.954 74.2053 142.337 74.0193 142.682 73.7729C143.031 73.5219 143.327 73.2149 143.569 72.8519C143.816 72.4844 143.988 72.0632 144.087 71.5881H145.754C145.628 72.2917 145.4 72.9214 145.068 73.4771C144.737 74.0328 144.324 74.5056 143.831 74.8955C143.338 75.2809 142.785 75.5744 142.171 75.7761C141.561 75.9778 140.909 76.0786 140.215 76.0786C139.041 76.0786 137.996 75.7918 137.082 75.2182C136.168 74.6445 135.449 73.8289 134.924 72.7712C134.4 71.7136 134.138 70.4588 134.138 69.0068C134.138 67.5548 134.4 66.2999 134.924 65.2423C135.449 64.1847 136.168 63.369 137.082 62.7954C137.996 62.2218 139.041 61.9349 140.215 61.9349C140.909 61.9349 141.561 62.0358 142.171 62.2374C142.785 62.4391 143.338 62.7349 143.831 63.1248C144.324 63.5102 144.737 63.9808 145.068 64.5365C145.4 65.0877 145.628 65.7173 145.754 66.4254ZM148.448 75.8904V62.1232H150.115V68.2539H157.456V62.1232H159.123V75.8904H157.456V69.7328H150.115V75.8904H148.448ZM163.025 75.8904H161.277L166.332 62.1232H168.053L173.109 75.8904H171.361L167.247 64.3012H167.139L163.025 75.8904ZM163.67 70.5126H170.715V71.9915H163.67V70.5126ZM186.17 62.1232V75.8904H184.557L177.054 65.081H176.92V75.8904H175.253V62.1232H176.866L184.395 72.9595H184.53V62.1232H186.17ZM198.917 66.4254C198.769 65.9728 198.574 65.5672 198.332 65.2087C198.095 64.8457 197.81 64.5365 197.478 64.281C197.151 64.0256 196.779 63.8306 196.363 63.6962C195.946 63.5617 195.489 63.4945 194.991 63.4945C194.176 63.4945 193.434 63.7051 192.766 64.1264C192.098 64.5477 191.567 65.1684 191.173 65.9885C190.779 66.8086 190.581 67.8147 190.581 69.0068C190.581 70.1989 190.781 71.205 191.18 72.0251C191.579 72.8452 192.119 73.4659 192.8 73.8871C193.481 74.3084 194.247 74.519 195.099 74.519C195.888 74.519 196.582 74.351 197.183 74.0149C197.788 73.6743 198.258 73.1947 198.594 72.5763C198.935 71.9534 199.105 71.2206 199.105 70.3781L199.616 70.4857H195.475V69.0068H200.719V70.4857C200.719 71.6195 200.477 72.6054 199.993 73.4435C199.513 74.2815 198.85 74.9313 198.003 75.3929C197.16 75.85 196.192 76.0786 195.099 76.0786C193.88 76.0786 192.809 75.7918 191.886 75.2182C190.967 74.6445 190.25 73.8289 189.734 72.7712C189.223 71.7136 188.968 70.4588 188.968 69.0068C188.968 67.9178 189.114 66.9386 189.405 66.0691C189.701 65.1952 190.118 64.4513 190.655 63.8373C191.193 63.2234 191.829 62.7528 192.564 62.4257C193.299 62.0985 194.108 61.9349 194.991 61.9349C195.717 61.9349 196.394 62.0447 197.021 62.2643C197.653 62.4794 198.216 62.7864 198.709 63.1853C199.206 63.5797 199.621 64.0525 199.952 64.6037C200.284 65.1504 200.512 65.7577 200.638 66.4254H198.917ZM203.574 75.8904V62.1232H211.883V63.6021H205.241V68.2539H211.452V69.7328H205.241V74.4115H211.99V75.8904H203.574ZM216.037 76.0652C215.593 76.0652 215.212 75.9083 214.894 75.5946C214.58 75.2764 214.424 74.8955 214.424 74.4518C214.424 74.0126 214.58 73.6362 214.894 73.3225C215.212 73.0088 215.593 72.8519 216.037 72.8519C216.467 72.8519 216.844 73.0088 217.166 73.3225C217.489 73.6362 217.65 74.0126 217.65 74.4518C217.65 74.7476 217.574 75.0187 217.422 75.2652C217.274 75.5072 217.079 75.7022 216.837 75.85C216.595 75.9935 216.328 76.0652 216.037 76.0652Z" fill="white"/>
</svg>
