<svg width="360" height="148" viewBox="0 0 360 148" fill="none" xmlns="http://www.w3.org/2000/svg">
<path d="M20.8358 103.958C17.6001 103.958 14.7165 103.396 12.1852 102.274C9.65379 101.129 7.65071 99.4451 6.17592 97.2219C4.72314 94.9767 3.99674 92.1812 3.99674 88.8354C3.99674 86.0179 4.51402 83.6516 5.54858 81.7365C6.58314 79.8215 7.9919 78.2807 9.77486 77.1141C11.5578 75.9474 13.5829 75.067 15.8501 74.4726C18.1394 73.8783 20.5387 73.4601 23.048 73.218C25.9976 72.9098 28.3749 72.6236 30.1798 72.3595C31.9848 72.0733 33.2945 71.6551 34.109 71.1048C34.9234 70.5545 35.3306 69.7401 35.3306 68.6615V68.4634C35.3306 66.3723 34.6703 64.7544 33.3496 63.6098C32.0509 62.4652 30.2019 61.8929 27.8026 61.8929C25.2712 61.8929 23.2571 62.4542 21.7603 63.5768C20.2635 64.6774 19.273 66.0641 18.7887 67.737L5.7797 66.6804C6.44006 63.5988 7.73876 60.9353 9.6758 58.6901C11.6128 56.4229 14.1112 54.684 17.1708 53.4733C20.2525 52.2407 23.8184 51.6243 27.8686 51.6243C30.6861 51.6243 33.3826 51.9545 35.958 52.6149C38.5554 53.2752 40.8556 54.2988 42.8587 55.6855C44.8838 57.0723 46.4796 58.8552 47.6463 61.0344C48.8129 63.1916 49.3962 65.778 49.3962 68.7936V103H36.057V95.9672H35.6608C34.8464 97.5521 33.7568 98.9498 32.392 100.16C31.0273 101.349 29.3874 102.285 27.4724 102.967C25.5574 103.627 23.3452 103.958 20.8358 103.958ZM24.864 94.2503C26.9331 94.2503 28.7601 93.8431 30.3449 93.0286C31.9298 92.1922 33.1735 91.0696 34.0759 89.6608C34.9784 88.2521 35.4297 86.6562 35.4297 84.8732V79.4913C34.9894 79.7775 34.3841 80.0416 33.6137 80.2838C32.8653 80.5039 32.0178 80.713 31.0713 80.9111C30.1248 81.0872 29.1783 81.2523 28.2318 81.4064C27.2853 81.5384 26.4268 81.6595 25.6564 81.7696C24.0055 82.0117 22.5637 82.3969 21.3311 82.9252C20.0984 83.4535 19.1409 84.1689 18.4585 85.0713C17.7762 85.9518 17.435 87.0524 17.435 88.3731C17.435 90.2882 18.1284 91.7519 19.5151 92.7645C20.9239 93.755 22.7068 94.2503 24.864 94.2503ZM60.3086 103V52.2847H73.7138V61.2325H74.3081C75.3647 58.2609 77.1256 55.9166 79.591 54.1997C82.0563 52.4828 85.0059 51.6243 88.4397 51.6243C91.9176 51.6243 94.8782 52.4938 97.3215 54.2327C99.7648 55.9497 101.394 58.2829 102.208 61.2325H102.736C103.771 58.3269 105.642 56.0047 108.349 54.2658C111.079 52.5048 114.304 51.6243 118.024 51.6243C122.756 51.6243 126.597 53.1321 129.547 56.1478C132.518 59.1414 134.004 63.3897 134.004 68.8926V103H119.972V71.6661C119.972 68.8486 119.223 66.7355 117.726 65.3267C116.23 63.918 114.359 63.2136 112.113 63.2136C109.56 63.2136 107.568 64.028 106.137 65.6569C104.706 67.2638 103.991 69.3879 103.991 72.0293V103H90.3548V71.369C90.3548 68.8816 89.6394 66.9006 88.2086 65.4258C86.7998 63.951 84.9398 63.2136 82.6286 63.2136C81.0658 63.2136 79.657 63.6098 78.4023 64.4022C77.1697 65.1726 76.1901 66.2622 75.4637 67.671C74.7373 69.0577 74.3741 70.6866 74.3741 72.5576V103H60.3086ZM159.577 103.958C156.341 103.958 153.457 103.396 150.926 102.274C148.395 101.129 146.391 99.4451 144.917 97.2219C143.464 94.9767 142.737 92.1812 142.737 88.8354C142.737 86.0179 143.255 83.6516 144.289 81.7365C145.324 79.8215 146.733 78.2807 148.516 77.1141C150.299 75.9474 152.324 75.067 154.591 74.4726C156.88 73.8783 159.279 73.4601 161.789 73.218C164.738 72.9098 167.116 72.6236 168.921 72.3595C170.726 72.0733 172.035 71.6551 172.85 71.1048C173.664 70.5545 174.071 69.7401 174.071 68.6615V68.4634C174.071 66.3723 173.411 64.7544 172.09 63.6098C170.792 62.4652 168.943 61.8929 166.543 61.8929C164.012 61.8929 161.998 62.4542 160.501 63.5768C159.004 64.6774 158.014 66.0641 157.529 67.737L144.52 66.6804C145.181 63.5988 146.479 60.9353 148.417 58.6901C150.354 56.4229 152.852 54.684 155.912 53.4733C158.993 52.2407 162.559 51.6243 166.609 51.6243C169.427 51.6243 172.123 51.9545 174.699 52.6149C177.296 53.2752 179.596 54.2988 181.599 55.6855C183.624 57.0723 185.22 58.8552 186.387 61.0344C187.554 63.1916 188.137 65.778 188.137 68.7936V103H174.798V95.9672H174.402C173.587 97.5521 172.497 98.9498 171.133 100.16C169.768 101.349 168.128 102.285 166.213 102.967C164.298 103.627 162.086 103.958 159.577 103.958ZM163.605 94.2503C165.674 94.2503 167.501 93.8431 169.086 93.0286C170.671 92.1922 171.914 91.0696 172.817 89.6608C173.719 88.2521 174.17 86.6562 174.17 84.8732V79.4913C173.73 79.7775 173.125 80.0416 172.354 80.2838C171.606 80.5039 170.759 80.713 169.812 80.9111C168.866 81.0872 167.919 81.2523 166.973 81.4064C166.026 81.5384 165.168 81.6595 164.397 81.7696C162.746 82.0117 161.304 82.3969 160.072 82.9252C158.839 83.4535 157.882 84.1689 157.199 85.0713C156.517 85.9518 156.176 87.0524 156.176 88.3731C156.176 90.2882 156.869 91.7519 158.256 92.7645C159.665 93.755 161.448 94.2503 163.605 94.2503ZM213.511 103.958C210.275 103.958 207.392 103.396 204.86 102.274C202.329 101.129 200.326 99.4451 198.851 97.2219C197.398 94.9767 196.672 92.1812 196.672 88.8354C196.672 86.0179 197.189 83.6516 198.224 81.7365C199.258 79.8215 200.667 78.2807 202.45 77.1141C204.233 75.9474 206.258 75.067 208.525 74.4726C210.815 73.8783 213.214 73.4601 215.723 73.218C218.673 72.9098 221.05 72.6236 222.855 72.3595C224.66 72.0733 225.97 71.6551 226.784 71.1048C227.599 70.5545 228.006 69.7401 228.006 68.6615V68.4634C228.006 66.3723 227.346 64.7544 226.025 63.6098C224.726 62.4652 222.877 61.8929 220.478 61.8929C217.946 61.8929 215.932 62.4542 214.436 63.5768C212.939 64.6774 211.948 66.0641 211.464 67.737L198.455 66.6804C199.115 63.5988 200.414 60.9353 202.351 58.6901C204.288 56.4229 206.786 54.684 209.846 53.4733C212.928 52.2407 216.494 51.6243 220.544 51.6243C223.361 51.6243 226.058 51.9545 228.633 52.6149C231.231 53.2752 233.531 54.2988 235.534 55.6855C237.559 57.0723 239.155 58.8552 240.322 61.0344C241.488 63.1916 242.071 65.778 242.071 68.7936V103H228.732V95.9672H228.336C227.522 97.5521 226.432 98.9498 225.067 100.16C223.703 101.349 222.063 102.285 220.148 102.967C218.233 103.627 216.02 103.958 213.511 103.958ZM217.539 94.2503C219.608 94.2503 221.435 93.8431 223.02 93.0286C224.605 92.1922 225.849 91.0696 226.751 89.6608C227.654 88.2521 228.105 86.6562 228.105 84.8732V79.4913C227.665 79.7775 227.059 80.0416 226.289 80.2838C225.541 80.5039 224.693 80.713 223.747 80.9111C222.8 81.0872 221.854 81.2523 220.907 81.4064C219.961 81.5384 219.102 81.6595 218.332 81.7696C216.681 82.0117 215.239 82.3969 214.006 82.9252C212.774 83.4535 211.816 84.1689 211.134 85.0713C210.451 85.9518 210.11 87.0524 210.11 88.3731C210.11 90.2882 210.804 91.7519 212.19 92.7645C213.599 93.755 215.382 94.2503 217.539 94.2503ZM267.049 73.6802V103H252.984V52.2847H266.389V61.2325H266.983C268.106 58.2829 269.988 55.9497 272.629 54.2327C275.271 52.4938 278.474 51.6243 282.238 51.6243C285.759 51.6243 288.83 52.3947 291.45 53.9356C294.069 55.4764 296.105 57.6776 297.558 60.5391C299.011 63.3787 299.737 66.7685 299.737 70.7086V103H285.671V73.218C285.693 70.1143 284.901 67.693 283.294 65.954C281.687 64.1931 279.475 63.3126 276.658 63.3126C274.765 63.3126 273.092 63.7198 271.639 64.5343C270.208 65.3487 269.086 66.5374 268.271 68.1002C267.479 69.641 267.071 71.501 267.049 73.6802ZM325.285 103.958C322.049 103.958 319.165 103.396 316.634 102.274C314.103 101.129 312.099 99.4451 310.625 97.2219C309.172 94.9767 308.445 92.1812 308.445 88.8354C308.445 86.0179 308.963 83.6516 309.997 81.7365C311.032 79.8215 312.441 78.2807 314.224 77.1141C316.007 75.9474 318.032 75.067 320.299 74.4726C322.588 73.8783 324.987 73.4601 327.497 73.218C330.446 72.9098 332.824 72.6236 334.629 72.3595C336.434 72.0733 337.743 71.6551 338.558 71.1048C339.372 70.5545 339.779 69.7401 339.779 68.6615V68.4634C339.779 66.3723 339.119 64.7544 337.798 63.6098C336.5 62.4652 334.651 61.8929 332.251 61.8929C329.72 61.8929 327.706 62.4542 326.209 63.5768C324.712 64.6774 323.722 66.0641 323.237 67.737L310.228 66.6804C310.889 63.5988 312.187 60.9353 314.125 58.6901C316.062 56.4229 318.56 54.684 321.62 53.4733C324.701 52.2407 328.267 51.6243 332.317 51.6243C335.135 51.6243 337.831 51.9545 340.407 52.6149C343.004 53.2752 345.304 54.2988 347.307 55.6855C349.332 57.0723 350.928 58.8552 352.095 61.0344C353.262 63.1916 353.845 65.778 353.845 68.7936V103H340.506V95.9672H340.11C339.295 97.5521 338.205 98.9498 336.841 100.16C335.476 101.349 333.836 102.285 331.921 102.967C330.006 103.627 327.794 103.958 325.285 103.958ZM329.313 94.2503C331.382 94.2503 333.209 93.8431 334.794 93.0286C336.379 92.1922 337.622 91.0696 338.525 89.6608C339.427 88.2521 339.878 86.6562 339.878 84.8732V79.4913C339.438 79.7775 338.833 80.0416 338.062 80.2838C337.314 80.5039 336.467 80.713 335.52 80.9111C334.574 81.0872 333.627 81.2523 332.681 81.4064C331.734 81.5384 330.876 81.6595 330.105 81.7696C328.454 82.0117 327.012 82.3969 325.78 82.9252C324.547 83.4535 323.59 84.1689 322.907 85.0713C322.225 85.9518 321.884 87.0524 321.884 88.3731C321.884 90.2882 322.577 91.7519 323.964 92.7645C325.373 93.755 327.156 94.2503 329.313 94.2503Z" fill="white"/>
<path d="M186.217 133.538C184.249 133.538 182.552 133.103 181.126 132.235C179.708 131.358 178.613 130.135 177.842 128.566C177.08 126.988 176.699 125.154 176.699 123.062C176.699 120.971 177.08 119.128 177.842 117.532C178.613 115.928 179.685 114.679 181.059 113.784C182.442 112.88 184.055 112.428 185.898 112.428C186.961 112.428 188.012 112.605 189.048 112.959C190.085 113.314 191.029 113.89 191.88 114.688C192.731 115.476 193.409 116.522 193.914 117.825C194.419 119.128 194.672 120.732 194.672 122.637V123.966H178.932V121.254H191.481C191.481 120.102 191.251 119.074 190.79 118.17C190.338 117.266 189.691 116.553 188.849 116.03C188.016 115.507 187.032 115.246 185.898 115.246C184.648 115.246 183.567 115.556 182.654 116.176C181.75 116.788 181.055 117.585 180.567 118.569C180.08 119.553 179.836 120.608 179.836 121.733V123.541C179.836 125.083 180.102 126.39 180.634 127.463C181.174 128.526 181.923 129.337 182.88 129.895C183.837 130.445 184.95 130.719 186.217 130.719C187.041 130.719 187.786 130.604 188.45 130.374C189.124 130.135 189.704 129.78 190.192 129.31C190.679 128.832 191.056 128.238 191.322 127.529L194.353 128.38C194.034 129.408 193.497 130.312 192.744 131.092C191.991 131.863 191.06 132.465 189.952 132.9C188.845 133.325 187.599 133.538 186.217 133.538ZM201.235 112.693L206.127 121.042L211.019 112.693H214.635L208.042 122.903L214.635 133.112H211.019L206.127 125.189L201.235 133.112H197.619L204.107 122.903L197.619 112.693H201.235ZM226.566 133.538C224.652 133.538 223.003 133.086 221.621 132.182C220.238 131.278 219.175 130.033 218.43 128.446C217.686 126.86 217.314 125.048 217.314 123.009C217.314 120.935 217.695 119.105 218.457 117.519C219.228 115.924 220.3 114.679 221.674 113.784C223.057 112.88 224.67 112.428 226.513 112.428C227.949 112.428 229.242 112.693 230.395 113.225C231.547 113.757 232.491 114.501 233.226 115.459C233.962 116.416 234.418 117.532 234.595 118.808H231.458C231.219 117.878 230.687 117.054 229.863 116.336C229.048 115.609 227.949 115.246 226.566 115.246C225.343 115.246 224.271 115.565 223.349 116.203C222.436 116.832 221.723 117.723 221.209 118.875C220.704 120.018 220.451 121.361 220.451 122.903C220.451 124.48 220.699 125.854 221.195 127.024C221.701 128.194 222.41 129.102 223.322 129.749C224.244 130.396 225.325 130.719 226.566 130.719C227.381 130.719 228.121 130.578 228.786 130.294C229.451 130.01 230.014 129.603 230.474 129.071C230.935 128.539 231.263 127.901 231.458 127.157H234.595C234.418 128.362 233.979 129.448 233.279 130.414C232.588 131.371 231.671 132.133 230.528 132.7C229.393 133.259 228.073 133.538 226.566 133.538ZM242.319 120.829V133.112H239.182V105.887H242.319V115.884H242.585C243.063 114.829 243.781 113.992 244.738 113.371C245.704 112.742 246.989 112.428 248.593 112.428C249.985 112.428 251.203 112.707 252.249 113.265C253.295 113.815 254.106 114.661 254.682 115.804C255.267 116.939 255.559 118.383 255.559 120.138V133.112H252.422V120.351C252.422 118.729 252.001 117.475 251.159 116.588C250.326 115.693 249.169 115.246 247.689 115.246C246.661 115.246 245.74 115.463 244.924 115.897C244.118 116.331 243.48 116.965 243.01 117.798C242.549 118.631 242.319 119.642 242.319 120.829ZM267.307 133.591C266.013 133.591 264.839 133.347 263.785 132.86C262.73 132.363 261.892 131.65 261.272 130.719C260.652 129.78 260.342 128.646 260.342 127.316C260.342 126.147 260.572 125.198 261.033 124.472C261.494 123.736 262.11 123.16 262.881 122.743C263.652 122.327 264.502 122.017 265.433 121.813C266.372 121.6 267.316 121.432 268.264 121.308C269.505 121.148 270.511 121.029 271.282 120.949C272.062 120.86 272.629 120.714 272.984 120.51C273.347 120.306 273.529 119.952 273.529 119.447V119.34C273.529 118.029 273.17 117.009 272.452 116.283C271.743 115.556 270.666 115.193 269.222 115.193C267.724 115.193 266.55 115.521 265.699 116.176C264.848 116.832 264.25 117.532 263.904 118.277L260.926 117.213C261.458 115.973 262.167 115.007 263.053 114.315C263.948 113.615 264.923 113.128 265.978 112.853C267.041 112.569 268.087 112.428 269.115 112.428C269.771 112.428 270.524 112.507 271.375 112.667C272.235 112.818 273.063 113.132 273.861 113.611C274.667 114.089 275.337 114.812 275.868 115.778C276.4 116.744 276.666 118.037 276.666 119.659V133.112H273.529V130.347H273.369C273.156 130.79 272.802 131.265 272.306 131.77C271.809 132.275 271.149 132.705 270.325 133.059C269.501 133.414 268.495 133.591 267.307 133.591ZM267.786 130.773C269.027 130.773 270.072 130.529 270.923 130.042C271.783 129.554 272.43 128.925 272.864 128.154C273.307 127.383 273.529 126.572 273.529 125.721V122.85C273.396 123.009 273.103 123.155 272.651 123.288C272.208 123.412 271.694 123.523 271.109 123.621C270.533 123.709 269.97 123.789 269.421 123.86C268.88 123.922 268.442 123.975 268.105 124.02C267.29 124.126 266.527 124.299 265.818 124.538C265.118 124.768 264.551 125.118 264.117 125.588C263.691 126.049 263.479 126.678 263.479 127.476C263.479 128.566 263.882 129.39 264.689 129.948C265.504 130.498 266.536 130.773 267.786 130.773ZM285.529 120.829V133.112H282.392V112.693H285.423V115.884H285.689C286.167 114.847 286.894 114.014 287.869 113.385C288.844 112.747 290.102 112.428 291.644 112.428C293.027 112.428 294.237 112.711 295.274 113.278C296.31 113.837 297.117 114.688 297.693 115.831C298.269 116.965 298.557 118.401 298.557 120.138V133.112H295.42V120.351C295.42 118.746 295.003 117.497 294.17 116.602C293.337 115.698 292.194 115.246 290.74 115.246C289.739 115.246 288.844 115.463 288.055 115.897C287.275 116.331 286.659 116.965 286.207 117.798C285.755 118.631 285.529 119.642 285.529 120.829ZM312.532 141.195C311.016 141.195 309.714 141 308.624 140.61C307.533 140.229 306.625 139.724 305.898 139.094C305.181 138.474 304.609 137.809 304.184 137.1L306.683 135.346C306.966 135.718 307.325 136.143 307.759 136.622C308.194 137.109 308.788 137.53 309.541 137.885C310.303 138.248 311.3 138.43 312.532 138.43C314.18 138.43 315.541 138.031 316.613 137.233C317.685 136.436 318.221 135.186 318.221 133.485V129.337H317.956C317.725 129.709 317.397 130.17 316.972 130.719C316.555 131.26 315.953 131.743 315.164 132.168C314.384 132.585 313.329 132.793 312 132.793C310.352 132.793 308.872 132.403 307.56 131.623C306.257 130.844 305.225 129.709 304.463 128.22C303.709 126.731 303.333 124.924 303.333 122.797C303.333 120.705 303.701 118.884 304.436 117.333C305.172 115.773 306.195 114.568 307.507 113.717C308.819 112.857 310.334 112.428 312.053 112.428C313.383 112.428 314.437 112.649 315.217 113.092C316.006 113.527 316.609 114.023 317.025 114.581C317.45 115.131 317.778 115.583 318.009 115.937H318.328V112.693H321.359V133.697C321.359 135.452 320.96 136.879 320.162 137.978C319.374 139.086 318.31 139.896 316.972 140.41C315.643 140.933 314.163 141.195 312.532 141.195ZM312.425 129.975C313.684 129.975 314.747 129.687 315.616 129.111C316.484 128.535 317.145 127.706 317.597 126.625C318.049 125.544 318.275 124.25 318.275 122.743C318.275 121.272 318.053 119.974 317.61 118.848C317.167 117.723 316.511 116.841 315.643 116.203C314.774 115.565 313.702 115.246 312.425 115.246C311.096 115.246 309.988 115.583 309.102 116.256C308.225 116.93 307.565 117.834 307.121 118.968C306.687 120.102 306.47 121.361 306.47 122.743C306.47 124.161 306.692 125.415 307.135 126.505C307.587 127.587 308.251 128.437 309.129 129.058C310.015 129.669 311.114 129.975 312.425 129.975ZM335.663 133.538C333.695 133.538 331.998 133.103 330.571 132.235C329.153 131.358 328.059 130.135 327.288 128.566C326.525 126.988 326.144 125.154 326.144 123.062C326.144 120.971 326.525 119.128 327.288 117.532C328.059 115.928 329.131 114.679 330.505 113.784C331.887 112.88 333.5 112.428 335.344 112.428C336.407 112.428 337.457 112.605 338.494 112.959C339.531 113.314 340.475 113.89 341.326 114.688C342.176 115.476 342.854 116.522 343.359 117.825C343.865 119.128 344.117 120.732 344.117 122.637V123.966H328.378V121.254H340.927C340.927 120.102 340.696 119.074 340.236 118.17C339.784 117.266 339.137 116.553 338.295 116.03C337.462 115.507 336.478 115.246 335.344 115.246C334.094 115.246 333.013 115.556 332.1 116.176C331.196 116.788 330.5 117.585 330.013 118.569C329.525 119.553 329.282 120.608 329.282 121.733V123.541C329.282 125.083 329.548 126.39 330.079 127.463C330.62 128.526 331.369 129.337 332.326 129.895C333.283 130.445 334.395 130.719 335.663 130.719C336.487 130.719 337.231 130.604 337.896 130.374C338.569 130.135 339.15 129.78 339.637 129.31C340.125 128.832 340.501 128.238 340.767 127.529L343.798 128.38C343.479 129.408 342.943 130.312 342.19 131.092C341.436 131.863 340.506 132.465 339.398 132.9C338.29 133.325 337.045 133.538 335.663 133.538ZM351.176 133.325C350.52 133.325 349.957 133.09 349.488 132.62C349.018 132.151 348.783 131.588 348.783 130.932C348.783 130.276 349.018 129.714 349.488 129.244C349.957 128.774 350.52 128.539 351.176 128.539C351.832 128.539 352.395 128.774 352.864 129.244C353.334 129.714 353.569 130.276 353.569 130.932C353.569 131.366 353.458 131.765 353.237 132.129C353.024 132.492 352.736 132.784 352.372 133.006C352.018 133.219 351.619 133.325 351.176 133.325Z" fill="white"/>
</svg>
