<svg width="200" height="201" viewBox="0 0 200 201" fill="none" xmlns="http://www.w3.org/2000/svg">
<path d="M84.4823 55.668C86.0982 55.6667 87.692 56.0429 89.1359 56.7663C90.5799 57.4897 91.834 58.5403 92.7977 59.8339L98.7696 52.0465L80.851 38.3784L67.1465 56.2492L74.8693 62.1401C75.6422 60.2285 76.9703 58.5909 78.6832 57.4376C80.3961 56.2844 82.4156 55.6681 84.4823 55.668Z" fill="#699CFF"/>
<path d="M168.476 122.138H197.86C199.088 126.795 199.229 131.67 198.272 136.389C197.315 141.109 195.284 145.546 192.338 149.36C189.391 153.175 185.606 156.264 181.275 158.39C176.943 160.517 172.18 161.624 167.352 161.627C166.491 161.627 165.638 161.592 164.794 161.523V144.246C164.795 143.417 164.591 142.602 164.201 141.87C163.811 141.139 163.246 140.515 162.557 140.053C161.868 139.59 161.075 139.304 160.249 139.22C159.423 139.136 158.588 139.255 157.819 139.569V132.77C157.819 131.374 158.094 129.991 158.629 128.702C159.165 127.412 159.95 126.24 160.939 125.252C161.929 124.265 163.104 123.482 164.397 122.947C165.69 122.413 167.076 122.138 168.476 122.138Z" fill="#699CFF"/>
<path d="M19.0496 132.163L8.82227 124.362L1.00014 134.562L11.2274 142.363L19.0496 132.163Z" fill="#699CFF"/>
<path d="M25.2384 152.601L16.0307 83.7569L150.89 62.7154L160.098 131.56L25.2384 152.601Z" fill="#F1F1F1" stroke="#111111" stroke-width="0.563637"/>
<path d="M148.055 68.9483L20.3833 88.8684L28.1279 146.773L155.8 126.853L148.055 68.9483Z" fill="white"/>
<path d="M16.1927 85.4106L15.4364 79.7557L150.296 58.7142L151.052 64.3691L16.1927 85.4106Z" fill="#E5E5E5" stroke="#111111" stroke-width="0.563637"/>
<path d="M19.8851 83.67C20.4802 83.67 20.9626 83.149 20.9626 82.5064C20.9626 81.8637 20.4802 81.3428 19.8851 81.3428C19.29 81.3428 18.8076 81.8637 18.8076 82.5064C18.8076 83.149 19.29 83.67 19.8851 83.67Z" fill="white"/>
<path d="M23.9325 83.0396C24.5275 83.0396 25.0099 82.5187 25.0099 81.876C25.0099 81.2334 24.5275 80.7124 23.9325 80.7124C23.3374 80.7124 22.855 81.2334 22.855 81.876C22.855 82.5187 23.3374 83.0396 23.9325 83.0396Z" fill="white"/>
<path d="M27.9793 82.4078C28.5744 82.4078 29.0568 81.8868 29.0568 81.2442C29.0568 80.6015 28.5744 80.0806 27.9793 80.0806C27.3843 80.0806 26.9019 80.6015 26.9019 81.2442C26.9019 81.8868 27.3843 82.4078 27.9793 82.4078Z" fill="white"/>
<path d="M45.6983 162.097V92.5368H181.956V162.097H45.6983Z" fill="#E6E6E6" stroke="#111111" stroke-width="0.563637"/>
<path d="M45.6608 94.1796V88.5064H181.878V94.1796H45.6608Z" fill="#E5E5E5" stroke="#111111" stroke-width="0.604864"/>
<path d="M49.6776 93.0594C50.2727 93.0594 50.7551 92.5384 50.7551 91.8958C50.7551 91.2531 50.2727 90.7322 49.6776 90.7322C49.0825 90.7322 48.6001 91.2531 48.6001 91.8958C48.6001 92.5384 49.0825 93.0594 49.6776 93.0594Z" fill="white"/>
<path d="M53.7669 93.0594C54.362 93.0594 54.8444 92.5384 54.8444 91.8958C54.8444 91.2531 54.362 90.7322 53.7669 90.7322C53.1719 90.7322 52.6895 91.2531 52.6895 91.8958C52.6895 92.5384 53.1719 93.0594 53.7669 93.0594Z" fill="white"/>
<path d="M57.8563 93.0594C58.4514 93.0594 58.9338 92.5384 58.9338 91.8958C58.9338 91.2531 58.4514 90.7322 57.8563 90.7322C57.2612 90.7322 56.7788 91.2531 56.7788 91.8958C56.7788 92.5384 57.2612 93.0594 57.8563 93.0594Z" fill="white"/>
<path d="M49.6104 156.493V98.5504H178.044V156.493H49.6104Z" fill="white" stroke="#111111" stroke-width="0.563637"/>
<ellipse cx="150.545" cy="121.986" rx="7.0611" ry="7.08383" fill="#699CFF"/>
<path d="M161.722 140.173C161.722 138.846 161.434 137.531 160.875 136.305C160.316 135.079 159.497 133.964 158.465 133.026C157.432 132.087 156.206 131.343 154.857 130.835C153.508 130.327 152.062 130.065 150.601 130.065C149.141 130.065 147.695 130.327 146.346 130.835C144.997 131.343 143.771 132.087 142.738 133.026C141.705 133.964 140.886 135.079 140.327 136.305C139.769 137.531 139.481 138.846 139.481 140.173L150.601 140.173H161.722Z" fill="#699CFF"/>
<path d="M84.3556 140.576H66.188V142.051H84.3556V140.576Z" fill="#E6E6E6"/>
<path d="M86.6213 144.409H63.7573V145.884H86.6213V144.409Z" fill="#E6E6E6"/>
<path d="M83.7385 118.174H65.7559V132.139H83.7385V118.174Z" fill="#699CFF"/>
<path d="M85.5368 131.043H68.2735C68.0828 131.043 67.8999 130.958 67.7651 130.809C67.6302 130.659 67.5544 130.456 67.5542 130.245V117.077C67.5544 116.866 67.6302 116.663 67.7651 116.513C67.8999 116.363 68.0828 116.279 68.2735 116.279H85.5368C85.7275 116.279 85.9104 116.363 86.0452 116.513C86.1801 116.663 86.2559 116.866 86.2561 117.077V130.245C86.2559 130.456 86.1801 130.659 86.0452 130.809C85.9104 130.958 85.7275 131.043 85.5368 131.043ZM68.2735 117.077V130.245H85.5374L85.5368 117.077H68.2735Z" fill="#3F3D56"/>
<path d="M83.5586 116.578H82.8393C82.8393 114.832 82.2141 113.157 81.1012 111.922C79.9883 110.688 78.4789 109.994 76.905 109.994C75.3312 109.994 73.8218 110.688 72.7089 111.922C71.596 113.157 70.9708 114.832 70.9708 116.578H70.2515C70.2515 114.62 70.9525 112.742 72.2002 111.358C73.448 109.974 75.1404 109.196 76.905 109.196C78.6697 109.196 80.362 109.974 81.6098 111.358C82.8576 112.742 83.5586 114.62 83.5586 116.578Z" fill="#3F3D56"/>
<path d="M78.704 122.064C78.7044 121.717 78.6229 121.375 78.4678 121.073C78.3126 120.771 78.0891 120.52 77.8194 120.343C77.5496 120.167 77.243 120.071 76.9299 120.067C76.6167 120.062 76.3079 120.148 76.0339 120.316C75.76 120.485 75.5304 120.73 75.3679 121.027C75.2054 121.324 75.1157 121.663 75.1075 122.01C75.0994 122.357 75.1732 122.701 75.3215 123.007C75.4699 123.313 75.6877 123.57 75.9534 123.754V125.896C75.9534 126.034 75.978 126.172 76.0258 126.3C76.0737 126.428 76.1438 126.544 76.2322 126.643C76.3207 126.741 76.4256 126.818 76.5411 126.872C76.6567 126.925 76.7805 126.952 76.9055 126.952C77.158 126.952 77.4002 126.841 77.5788 126.643C77.7573 126.444 77.8576 126.176 77.8576 125.896V123.754C78.1165 123.575 78.3301 123.326 78.4781 123.031C78.6262 122.735 78.704 122.402 78.704 122.064Z" fill="#3F3D56"/>
</svg>
