<svg width="200" height="200" viewBox="0 0 200 200" fill="none" xmlns="http://www.w3.org/2000/svg">
<path d="M153.029 163.506C149.133 167.666 144.668 171.259 139.767 174.177C139.654 174.246 139.54 174.31 139.425 174.377L131.49 167.373C131.574 167.296 131.666 167.21 131.765 167.114C137.678 161.516 167.029 122.371 168.985 112.838C168.85 113.632 170.75 144.776 153.029 163.506Z" fill="#699CFF"/>
<path d="M141.298 175.528C141.148 175.564 140.995 175.597 140.842 175.628L134.889 170.373C135.006 170.333 135.141 170.285 135.297 170.231C137.851 169.329 145.458 166.607 153.029 163.506C161.164 160.172 169.259 156.405 171 153.992C170.627 154.553 159.122 171.553 141.298 175.528Z" fill="#699CFF"/>
<path d="M67.2882 50.9489V78.5459C62.8911 79.6995 58.2873 79.8319 53.8309 78.9328C49.3744 78.0337 45.1842 76.127 41.5826 73.3596C37.981 70.5921 35.064 67.0376 33.056 62.9695C31.048 58.9014 30.0025 54.4281 30 49.8939C30 49.0845 30.0326 48.2836 30.0978 47.4911H46.4123C47.1945 47.4919 47.9648 47.3006 48.6554 46.9342C49.3459 46.5678 49.9355 46.0376 50.3719 45.3902C50.8084 44.7429 51.0784 43.9984 51.1581 43.2223C51.2378 42.4463 51.1247 41.6627 50.8289 40.9406H57.2488C58.567 40.9401 59.8724 41.1986 61.0904 41.7014C62.3085 42.2041 63.4152 42.9412 64.3475 43.8706C65.2798 44.8001 66.0194 45.9035 66.5239 47.118C67.0285 48.3325 67.2882 49.6343 67.2882 50.9489Z" fill="#699CFF"/>
<path d="M142.103 57.8196H141.221V33.8645C141.221 32.0438 140.859 30.2409 140.157 28.5588C139.454 26.8767 138.424 25.3483 137.126 24.0608C135.828 22.7734 134.287 21.7521 132.591 21.0554C130.894 20.3586 129.076 20 127.241 20H76.0644C72.3566 20 68.8006 21.4607 66.1788 24.0608C63.5569 26.6609 62.084 30.1874 62.084 33.8645V165.284C62.084 168.961 63.5569 172.487 66.1787 175.088C68.8006 177.688 72.3565 179.148 76.0643 179.148H127.24C130.948 179.148 134.504 177.688 137.126 175.088C139.748 172.487 141.221 168.961 141.221 165.284V74.8712H142.103L142.103 57.8196Z" fill="#111111"/>
<path d="M138.245 33.9619V165.188C138.245 167.934 137.145 170.568 135.187 172.509C133.229 174.451 130.573 175.542 127.804 175.542H76.3823C73.6132 175.542 70.9575 174.451 68.9995 172.509C67.0415 170.568 65.9415 167.934 65.9414 165.188V33.9619C65.9415 31.2158 67.0415 28.5821 68.9995 26.6403C70.9576 24.6985 73.6132 23.6076 76.3823 23.6075H82.6203C82.3138 24.3545 82.1971 25.1648 82.2804 25.967C82.3638 26.7693 82.6446 27.5389 83.0983 28.2082C83.5519 28.8775 84.1645 29.4261 84.882 29.8055C85.5996 30.185 86.4002 30.3838 87.2134 30.3843H116.532C117.345 30.3837 118.146 30.185 118.863 29.8055C119.581 29.4261 120.193 28.8775 120.647 28.2082C121.101 27.5389 121.381 26.7692 121.465 25.967C121.548 25.1648 121.431 24.3545 121.125 23.6075H127.804C130.573 23.6076 133.229 24.6985 135.187 26.6403C137.145 28.5821 138.245 31.2158 138.245 33.9619Z" fill="white"/>
<path d="M79.1231 35.7787C78.1964 35.7787 77.2789 35.9597 76.4228 36.3113C75.5667 36.663 74.7888 37.1784 74.1336 37.8282C73.4784 38.478 72.9586 39.2494 72.604 40.0984C72.2494 40.9474 72.0669 41.8574 72.0669 42.7763C72.0669 43.6953 72.2494 44.6052 72.604 45.4542C72.9586 46.3032 73.4784 47.0746 74.1336 47.7244C74.7888 48.3742 75.5667 48.8897 76.4227 49.2413C77.2788 49.593 78.1964 49.774 79.123 49.774H79.1231C80.9945 49.774 82.7892 49.0368 84.1125 47.7244C85.4358 46.4121 86.1792 44.6322 86.1792 42.7764C86.1792 40.9205 85.4358 39.1406 84.1125 37.8283C82.7892 36.5159 80.9945 35.7787 79.1231 35.7787Z" fill="#F2F2F2"/>
<path d="M130.355 48.6799H93.3104C92.8426 48.6799 92.3939 48.4956 92.0631 48.1675C91.7323 47.8394 91.5464 47.3944 91.5464 46.9305C91.5464 46.4665 91.7323 46.0215 92.0631 45.6934C92.3939 45.3653 92.8426 45.181 93.3104 45.181H130.355C130.823 45.181 131.272 45.3653 131.603 45.6934C131.933 46.0215 132.119 46.4665 132.119 46.9305C132.119 47.3944 131.933 47.8394 131.603 48.1675C131.272 48.4956 130.823 48.6799 130.355 48.6799Z" fill="#F2F2F2"/>
<path d="M104.997 41.2453H93.3104C92.8426 41.2453 92.3939 41.061 92.0631 40.7329C91.7323 40.4048 91.5464 39.9599 91.5464 39.4959C91.5464 39.0319 91.7323 38.5869 92.0631 38.2589C92.3939 37.9308 92.8426 37.7465 93.3104 37.7465H104.997C105.465 37.7465 105.914 37.9308 106.245 38.2589C106.575 38.5869 106.761 39.0319 106.761 39.4959C106.761 39.9599 106.575 40.4048 106.245 40.7329C105.914 41.061 105.465 41.2453 104.997 41.2453Z" fill="#F2F2F2"/>
<path d="M79.1231 65.0807C78.1964 65.0807 77.2789 65.2617 76.4228 65.6133C75.5667 65.965 74.7888 66.4804 74.1336 67.1302C73.4784 67.78 72.9586 68.5514 72.604 69.4004C72.2494 70.2494 72.0669 71.1594 72.0669 72.0783C72.0669 72.9973 72.2494 73.9072 72.604 74.7562C72.9586 75.6052 73.4784 76.3766 74.1336 77.0264C74.7888 77.6762 75.5667 78.1917 76.4227 78.5434C77.2788 78.895 78.1964 79.076 79.123 79.076H79.1231C80.9945 79.076 82.7892 78.3388 84.1125 77.0265C85.4358 75.7141 86.1792 73.9343 86.1792 72.0784C86.1792 70.2225 85.4358 68.4426 84.1125 67.1303C82.7892 65.8179 80.9945 65.0807 79.1231 65.0807Z" fill="#F2F2F2"/>
<path d="M130.355 77.9823H93.3104C92.8426 77.9823 92.3939 77.798 92.0631 77.47C91.7323 77.1419 91.5464 76.6969 91.5464 76.2329C91.5464 75.769 91.7323 75.324 92.0631 74.9959C92.3939 74.6678 92.8426 74.4835 93.3104 74.4835H130.355C130.823 74.4835 131.272 74.6678 131.603 74.9959C131.933 75.324 132.119 75.769 132.119 76.2329C132.119 76.6969 131.933 77.1419 131.603 77.47C131.272 77.798 130.823 77.9823 130.355 77.9823Z" fill="#F2F2F2"/>
<path d="M104.997 70.5478H93.3104C92.8426 70.5478 92.3939 70.3635 92.0631 70.0354C91.7323 69.7073 91.5464 69.2623 91.5464 68.7984C91.5464 68.3344 91.7323 67.8894 92.0631 67.5613C92.3939 67.2333 92.8426 67.049 93.3104 67.049H104.997C105.465 67.049 105.914 67.2333 106.245 67.5613C106.575 67.8894 106.761 68.3344 106.761 68.7984C106.761 69.2623 106.575 69.7073 106.245 70.0354C105.914 70.3635 105.465 70.5478 104.997 70.5478Z" fill="#F2F2F2"/>
<path d="M79.1231 123.686C77.2517 123.686 75.4569 124.423 74.1336 125.735C72.8103 127.048 72.0669 128.827 72.0669 130.683C72.0669 132.539 72.8103 134.319 74.1336 135.631C75.4568 136.944 77.2516 137.681 79.123 137.681H79.1231C80.9945 137.681 82.7892 136.944 84.1125 135.631C85.4358 134.319 86.1792 132.539 86.1792 130.683C86.1792 128.827 85.4358 127.048 84.1125 125.735C82.7892 124.423 80.9945 123.686 79.1231 123.686Z" fill="#F2F2F2"/>
<path d="M130.355 136.588H93.3104C92.8426 136.588 92.3939 136.404 92.0631 136.075C91.7323 135.747 91.5464 135.302 91.5464 134.838C91.5464 134.374 91.7323 133.929 92.0631 133.601C92.3939 133.273 92.8426 133.089 93.3104 133.089H130.355C130.823 133.089 131.272 133.273 131.603 133.601C131.933 133.929 132.119 134.374 132.119 134.838C132.119 135.302 131.933 135.747 131.603 136.075C131.272 136.404 130.823 136.588 130.355 136.588Z" fill="#F2F2F2"/>
<path d="M104.997 129.152H93.3104C92.8426 129.152 92.3939 128.968 92.0631 128.64C91.7323 128.312 91.5464 127.867 91.5464 127.403C91.5464 126.939 91.7323 126.494 92.0631 126.166C92.3939 125.838 92.8426 125.653 93.3104 125.653H104.997C105.465 125.653 105.914 125.838 106.245 126.166C106.575 126.494 106.761 126.939 106.761 127.403C106.761 127.867 106.575 128.312 106.245 128.64C105.914 128.968 105.465 129.152 104.997 129.152Z" fill="#F2F2F2"/>
<path d="M79.1231 152.989C78.1964 152.989 77.2789 153.17 76.4228 153.521C75.5667 153.873 74.7888 154.388 74.1336 155.038C73.4784 155.688 72.9586 156.459 72.604 157.308C72.2494 158.157 72.0669 159.067 72.0669 159.986C72.0669 160.905 72.2494 161.815 72.604 162.664C72.9586 163.513 73.4784 164.285 74.1336 164.934C74.7888 165.584 75.5667 166.1 76.4227 166.451C77.2788 166.803 78.1964 166.984 79.123 166.984H79.1231C80.9945 166.984 82.7892 166.247 84.1125 164.934C85.4358 163.622 86.1792 161.842 86.1792 159.986C86.1792 158.13 85.4358 156.351 84.1125 155.038C82.7892 153.726 80.9945 152.989 79.1231 152.989Z" fill="#F2F2F2"/>
<path d="M130.355 165.891H93.3104C92.8426 165.891 92.3939 165.706 92.0631 165.378C91.7323 165.05 91.5464 164.605 91.5464 164.141C91.5464 163.677 91.7323 163.232 92.0631 162.904C92.3939 162.576 92.8426 162.392 93.3104 162.392H130.355C130.823 162.392 131.272 162.576 131.603 162.904C131.933 163.232 132.119 163.677 132.119 164.141C132.119 164.605 131.933 165.05 131.603 165.378C131.272 165.706 130.823 165.891 130.355 165.891Z" fill="#F2F2F2"/>
<path d="M104.997 158.455H93.3104C92.8426 158.455 92.3939 158.271 92.0631 157.943C91.7323 157.615 91.5464 157.17 91.5464 156.706C91.5464 156.242 91.7323 155.797 92.0631 155.469C92.3939 155.141 92.8426 154.956 93.3104 154.956H104.997C105.465 154.956 105.914 155.141 106.245 155.469C106.575 155.797 106.761 156.242 106.761 156.706C106.761 157.17 106.575 157.615 106.245 157.943C105.914 158.271 105.465 158.455 104.997 158.455Z" fill="#F2F2F2"/>
<path d="M144.65 118.219H59.5358C58.5712 118.218 57.6464 117.838 56.9643 117.161C56.2822 116.485 55.8985 115.568 55.8975 114.611V87.495C55.8986 86.5384 56.2822 85.6213 56.9643 84.9448C57.6464 84.2684 58.5712 83.8879 59.5358 83.8868H144.65C145.615 83.8879 146.54 84.2684 147.222 84.9448C147.904 85.6213 148.288 86.5384 148.289 87.495V114.611C148.288 115.568 147.904 116.485 147.222 117.161C146.54 117.838 145.615 118.218 144.65 118.219Z" fill="white"/>
<ellipse cx="7.04074" cy="6.99622" rx="7.04074" ry="6.99622" transform="matrix(1.00041 0 -0.00116196 0.999591 72.3701 94.3466)" fill="#FFBE55"/>
<path d="M78.748 105.021C77.6506 104.924 76.5588 104.125 76.5593 103.706C76.5597 103.297 76.8946 103.103 77.2237 102.856C77.5527 102.608 79.0531 104.112 79.9511 103.809C80.849 103.507 80.3095 102.704 79.5022 102.182C78.5512 101.567 77.8648 101.11 77.2267 100.129C76.8825 99.6461 76.333 98.2877 77.4732 97.6844C77.8298 97.4958 77.9653 97.3764 79.0156 97.4083L79.0385 96.6936C79.2816 96.4179 80.295 96.4309 80.5756 96.7403L80.5527 97.455C81.1972 97.6097 82.7328 98.0415 82.8835 98.5054C83.0634 98.6965 83.198 99.2518 82.8823 99.6327C82.3585 100.265 78.7582 98.1506 79.042 99.6327C79.2745 100.847 83.5467 102.102 82.3348 103.958C82.0788 104.583 80.9903 105.119 80.3088 105.068L80.2864 105.766C79.9465 106.163 78.9567 106.104 78.7471 105.788L78.748 105.021Z" fill="white"/>
<path d="M130.355 106.957H93.3099C92.8421 106.957 92.3934 106.773 92.0626 106.445C91.7318 106.117 91.5459 105.672 91.5459 105.208C91.5459 104.744 91.7318 104.299 92.0626 103.971C92.3934 103.643 92.8421 103.458 93.3099 103.458H130.355C130.823 103.458 131.271 103.643 131.602 103.971C131.933 104.299 132.119 104.744 132.119 105.208C132.119 105.672 131.933 106.117 131.602 106.445C131.271 106.773 130.823 106.957 130.355 106.957Z" fill="#699CFF"/>
<path d="M104.997 99.5219H93.3099C92.8421 99.5219 92.3934 99.3376 92.0626 99.0095C91.7318 98.6814 91.5459 98.2365 91.5459 97.7725C91.5459 97.3085 91.7318 96.8635 92.0626 96.5355C92.3934 96.2074 92.8421 96.0231 93.3099 96.0231H104.997C105.465 96.0231 105.913 96.2074 106.244 96.5355C106.575 96.8635 106.761 97.3085 106.761 97.7725C106.761 98.2365 106.575 98.6814 106.244 99.0095C105.913 99.3376 105.465 99.5219 104.997 99.5219Z" fill="#699CFF"/>
<rect x="56.2116" y="83.8332" width="91.7631" height="34.2727" stroke="#2C3131" stroke-width="0.628217"/>
<ellipse cx="7.04074" cy="6.99622" rx="7.04074" ry="6.99622" transform="matrix(1.00041 0 -0.00116196 0.999591 72.3701 93.6482)" fill="#FFBE55"/>
<path d="M78.7475 104.323C77.6501 104.226 76.5583 103.427 76.5588 103.008C76.5592 102.599 76.8941 102.405 77.2232 102.157C77.5522 101.91 79.0526 103.414 79.9506 103.111C80.8485 102.809 80.309 102.006 79.5017 101.484C78.5507 100.869 77.8643 100.411 77.2262 99.4313C76.882 98.948 76.3325 97.5895 77.4727 96.9863C77.8293 96.7977 77.9648 96.6783 79.0151 96.7102L79.038 95.9955C79.2811 95.7198 80.2945 95.7328 80.5751 96.0422L80.5522 96.7569C81.1968 96.9116 82.7323 97.3434 82.883 97.8072C83.0629 97.9984 83.1975 98.5536 82.8818 98.9346C82.358 99.5667 78.7578 97.4524 79.0415 98.9346C79.274 100.149 83.5462 101.403 82.3344 103.26C82.0783 103.885 80.9898 104.421 80.3083 104.37L80.2859 105.068C79.946 105.465 78.9562 105.406 78.7466 105.089L78.7475 104.323Z" fill="white"/>
<path d="M163.188 59.4554L153.556 52.109L146.19 61.7143L155.821 69.0607L163.188 59.4554Z" fill="#699CFF"/>
</svg>
