<svg width="200" height="200" viewBox="0 0 200 200" fill="none" xmlns="http://www.w3.org/2000/svg">
<path d="M153.964 76.9686H45.6143V169.684H153.964V76.9686Z" fill="white"/>
<path d="M154.28 170H45.2998V76.6522H154.28V170ZM45.9297 169.367H153.65V77.2851H45.9297V169.367Z" fill="#2C3131"/>
<path d="M113.333 95.0049H86.2456V169.683H113.333V95.0049Z" fill="#699CFF"/>
<path d="M113.333 95.0049H86.2456V169.683H113.333V95.0049Z" fill="#699CFF"/>
<path d="M160.264 68.4249H39.3149V95.0053H160.264V68.4249Z" fill="white"/>
<path d="M160.579 95.3222H39V68.109H160.579V95.3222ZM39.6299 94.6894H159.949V68.7419H39.6299V94.6894Z" fill="#2C3131"/>
<path d="M113.333 65.8936H86.2456V94.689H113.333V65.8936Z" fill="#699CFF"/>
<path d="M96.8892 40.7865C104.039 51.435 97.3025 68.5616 97.3025 68.5616C97.3025 68.5616 78.9727 68.4235 71.8224 57.775C64.6721 47.1266 71.409 30 71.409 30C71.409 30 89.7389 30.1381 96.8892 40.7865Z" fill="#699CFF"/>
<path d="M100.17 40.7865C93.0198 51.435 99.7567 68.5616 99.7567 68.5616C99.7567 68.5616 118.087 68.4235 125.237 57.775C132.387 47.1266 125.65 30 125.65 30C125.65 30 107.32 30.1381 100.17 40.7865Z" fill="#699CFF"/>
<ellipse cx="21.871" cy="22.016" rx="21.871" ry="22.016" transform="matrix(1.00041 0 -0.0011555 0.999591 78.251 103.261)" fill="#FFBE55"/>
<path d="M98.0619 136.851C94.6532 136.547 91.2615 134.031 91.263 132.714C91.2644 131.426 92.3047 130.816 93.3269 130.036C94.3491 129.257 99.0098 133.99 101.799 133.038C104.589 132.086 102.912 129.56 100.405 127.917C97.4505 125.982 95.3186 124.542 93.3363 121.458C92.2672 119.937 90.56 115.662 94.102 113.764C95.2097 113.17 95.6306 112.794 98.8933 112.895L98.9644 110.646C99.7195 109.778 102.867 109.819 103.739 110.793L103.668 113.042C105.67 113.529 110.44 114.887 110.908 116.347C111.467 116.949 111.885 118.696 110.905 119.895C109.277 121.884 98.0938 115.231 98.9752 119.895C99.6975 123.717 112.969 127.664 109.204 133.504C108.409 135.472 105.027 137.16 102.91 137L102.841 139.195C101.785 140.446 98.7103 140.258 98.0592 139.263L98.0619 136.851Z" fill="white"/>
</svg>
