<svg width="14" height="14" viewBox="0 0 14 14" fill="none" xmlns="http://www.w3.org/2000/svg">
<g id="Twitter">
<path id="Vector" d="M12.2829 4.1888C12.2883 4.312 12.2883 4.4296 12.2883 4.5528C12.2937 8.28801 9.54941 12.6 4.53084 12.6C3.05067 12.6 1.5975 12.1576 0.349609 11.3288C0.565694 11.3568 0.781778 11.368 0.997863 11.368C2.22414 11.368 3.41801 10.9424 4.38499 10.1528C3.21813 10.1304 2.19173 9.34081 1.83519 8.18721C2.24575 8.27121 2.66711 8.25441 3.06687 8.13681C1.79738 7.87921 0.884418 6.72001 0.879016 5.3704C0.879016 5.3592 0.879016 5.348 0.879016 5.3368C1.25716 5.5552 1.68393 5.6784 2.1161 5.6896C0.922233 4.8608 0.549488 3.20879 1.27337 1.91519C2.66171 3.6848 4.70371 4.7544 6.89697 4.872C6.67548 3.892 6.978 2.86159 7.68568 2.16719C8.7823 1.09759 10.511 1.15359 11.5482 2.29039C12.1586 2.16719 12.7475 1.93199 13.2823 1.60159C13.077 2.25679 12.6502 2.81119 12.083 3.16399C12.6232 3.09679 13.1526 2.94559 13.6496 2.72159C13.2823 3.29279 12.8177 3.7856 12.2829 4.1888Z" fill="white"/>
</g>
</svg>
