<svg width="127" height="26" viewBox="0 0 127 26" fill="none" xmlns="http://www.w3.org/2000/svg">
<path d="M26.7169 16.1449C24.9675 23.0835 17.8858 27.3248 10.8393 25.5891C3.84035 23.8548 -0.437781 16.8341 1.313 9.84829C3.06238 2.90967 10.144 -1.33159 17.1906 0.404104C24.1895 2.13841 28.4676 9.15901 26.7169 16.1449Z" fill="#A9A9A9"/>
<path d="M19.783 11.1352C20.0424 9.4009 18.7135 8.46704 16.8996 7.85836L17.4828 5.5126L16.0572 5.15963L15.4741 7.43868L14.3078 7.1816L14.8909 4.90254L13.4654 4.54956L12.8822 6.89532L11.9753 6.6702L10.0128 6.18798L9.62457 7.69716L10.6619 7.95425C10.8631 7.977 11.0473 8.07736 11.1745 8.23365C11.3017 8.38995 11.3618 8.5896 11.3417 8.78944L10.6619 11.4576C10.6941 11.4576 10.76 11.4896 10.8245 11.4896C10.7922 11.4896 10.7263 11.4576 10.6619 11.4576L9.72269 15.1847C9.65821 15.3459 9.46337 15.635 9.07508 15.5377C9.07508 15.5696 8.03779 15.2806 8.03779 15.2806L7.33691 16.9204L9.21525 17.3706L10.2525 17.6277L9.66942 19.9902L11.095 20.3432L11.6781 17.9974L12.7995 18.2864L12.2164 20.6322L13.642 20.9852L14.2251 18.6227C16.688 19.073 18.5004 18.9118 19.2798 16.6953C19.8966 14.9304 19.2476 13.9159 17.9509 13.2253C18.9238 13.0307 19.605 12.422 19.7985 11.1366L19.783 11.1352ZM16.5099 15.7294C16.0558 17.4943 13.0757 16.5327 12.1029 16.3076L12.8808 13.16C13.8536 13.3851 16.9641 13.8548 16.5254 15.7308L16.5099 15.7294ZM16.9641 11.1352C16.5758 12.7417 14.0485 11.9384 13.2383 11.7133L13.9391 8.85475C14.7494 9.07988 17.3734 9.43286 16.9529 11.1338L16.9641 11.1352Z" fill="#F8F8FC"/>
<path d="M39.2898 7.85554C40.3593 7.85554 41.2522 8.05009 42.0442 8.40168C42.8222 8.78661 43.4698 9.26882 43.9562 9.91085C44.4749 10.5529 44.8309 11.2922 45.0776 12.1593C45.3156 13.0612 45.4353 13.9897 45.4337 14.922C45.4393 16.3875 45.153 17.8396 44.5912 19.1952C44.0611 20.4995 43.2798 21.689 42.2909 22.6971C41.3085 23.6944 40.1428 24.4963 38.8567 25.0596C37.4971 25.6451 36.0285 25.9405 34.5463 25.9267H33.509C33.0226 25.9267 32.4395 25.8628 31.7918 25.7655L29.7509 25.3806C29.05 25.2194 28.3576 24.9637 27.71 24.6857L33.4459 0.816898L38.5651 0.0136719L36.5241 8.49478C36.9783 8.30023 37.3988 8.14181 37.853 8.04453C38.3165 7.91287 38.7965 7.84736 39.2786 7.84998L39.2898 7.85554ZM34.9808 21.9273C35.7588 21.9273 36.4709 21.7327 37.1535 21.3811C37.84 20.9967 38.445 20.4842 38.9352 19.8719C39.4216 19.2605 39.8098 18.5545 40.1014 17.7513C40.393 16.9481 40.5219 16.1449 40.5219 15.2777C40.5219 14.2174 40.3593 13.4156 40.0033 12.8041C39.6472 12.226 38.9982 11.905 38.0591 11.905C37.7367 11.905 37.3582 11.9689 36.8606 12.0662C36.3629 12.1635 35.9214 12.4192 35.5317 12.761L33.359 21.7563C33.488 21.7883 33.6183 21.7883 33.715 21.8203C33.8118 21.8522 33.9113 21.8522 34.0374 21.8842C34.1356 21.8842 34.2968 21.9161 34.4257 21.9161H34.9766L34.9808 21.9273ZM50.7925 25.5404H45.8864L50.0216 8.24464H54.9473L50.7925 25.5404ZM53.1587 6.13791C52.4909 6.14673 51.8397 5.93123 51.3112 5.52646C50.7603 5.10956 50.4701 4.49811 50.4701 3.66432C50.4701 3.21407 50.5682 2.7652 50.7617 2.37888C50.942 1.98279 51.1949 1.62328 51.5074 1.31857C51.8299 1.03535 52.1897 0.796926 52.577 0.609838C52.9975 0.448637 53.418 0.352749 53.8736 0.352749C54.5414 0.343929 55.1925 0.559438 55.7211 0.964201C56.272 1.3811 56.5621 1.99255 56.5621 2.82635C56.5621 3.2766 56.464 3.72546 56.2706 4.11179C56.0902 4.50788 55.8374 4.86739 55.5248 5.1721C55.2333 5.46115 54.845 5.68627 54.4553 5.86693C54.0656 6.04759 53.6451 6.12402 53.1587 6.12402V6.13791ZM59.2507 3.95059L64.4035 3.14736L63.1391 8.25576H68.648L67.6429 12.2858H62.1663L60.7085 18.3253C60.5902 18.7886 60.5142 19.2616 60.4814 19.7385C60.4506 20.1874 60.5136 20.5418 60.644 20.8503C60.7073 21.0144 60.8031 21.1643 60.9256 21.2912C61.0481 21.4182 61.1949 21.5196 61.3575 21.5896C61.7135 21.7508 62.1985 21.8467 62.8153 21.8467C63.334 21.8467 63.8526 21.7827 64.3572 21.6855C64.8656 21.5909 65.3644 21.4509 65.8473 21.2672L66.2033 25.0262C65.5033 25.2719 64.789 25.4756 64.0643 25.6363C63.2863 25.8308 62.3794 25.8934 61.3098 25.8934C59.7875 25.8934 58.6185 25.6682 57.7774 25.2194C56.9364 24.7705 56.3519 24.1591 55.9972 23.3878C55.6426 22.6165 55.4786 21.7174 55.543 20.7196C55.5753 19.7233 55.7393 18.6629 55.9972 17.5234L59.2507 3.95059ZM68.4209 18.6324C68.4232 17.2003 68.6643 15.7785 69.1344 14.4245C69.5974 13.158 70.3012 11.9914 71.2076 10.9878C72.1145 9.99145 73.2163 9.22296 74.5129 8.64208C75.8095 8.06121 77.2351 7.77494 78.8233 7.77494C79.8283 7.77494 80.7016 7.87221 81.481 8.06399C82.2603 8.25576 82.971 8.48089 83.62 8.80329L81.9351 12.6249C81.481 12.4303 81.0282 12.3052 80.5754 12.1426C80.089 11.9814 79.5059 11.9175 78.8261 11.9175C77.172 11.9175 75.9104 12.4637 74.9376 13.5879C73.9648 14.7121 73.4798 16.1893 73.4798 18.0848C73.4798 19.1966 73.7391 20.1082 74.2255 20.7836C74.7119 21.4784 75.6189 21.8119 76.9169 21.8119C77.538 21.8147 78.1575 21.7499 78.7644 21.6187C79.307 21.5044 79.8384 21.3431 80.3526 21.1365L80.7086 25.0554L78.6677 25.6974C77.9219 25.892 77.0136 25.9865 75.9763 25.9865C74.6166 25.9865 73.449 25.7919 72.5098 25.4084C71.615 25.0454 70.8084 24.4978 70.1436 23.8019C69.5221 23.1336 69.067 22.3302 68.8148 21.4562C68.5523 20.5367 68.4216 19.5852 68.4265 18.6296L68.4209 18.6324ZM90.1956 25.9767C89.0294 25.9767 87.9921 25.7822 87.1496 25.4626C86.275 25.1096 85.5615 24.6288 85.0106 23.9853C84.4461 23.3242 84.0167 22.5605 83.7462 21.7369C83.4546 20.8697 83.3257 19.9053 83.3257 18.8783C83.3257 17.5609 83.5528 16.2435 83.9733 14.9275C84.3806 13.6408 85.0293 12.4418 85.8853 11.3936C86.7263 10.3333 87.7636 9.46616 88.9635 8.82274C90.162 8.14876 91.5567 7.82635 93.1435 7.82635C94.1813 7.82039 95.2122 7.99441 96.1895 8.34053C97.0642 8.6935 97.7777 9.17433 98.3286 9.81774C98.893 10.4789 99.3224 11.2426 99.5929 12.0662C99.8845 12.9334 100.013 13.8978 100.013 14.9247C100.013 16.2421 99.8172 17.5595 99.3967 18.8756C98.9762 20.1916 98.3594 21.3811 97.5492 22.4095C96.739 23.4698 95.7017 24.305 94.471 24.9803C93.2402 25.6557 91.8133 25.9767 90.1956 25.9767ZM92.6585 11.9064C91.9725 11.9065 91.3038 12.1199 90.7465 12.5165C90.1956 12.9334 89.7415 13.4475 89.3532 14.091C88.9649 14.7344 88.7056 15.4084 88.5121 16.1796C88.3187 16.9509 88.2206 17.6568 88.2206 18.3336C88.2206 19.4259 88.4168 20.2791 88.7392 20.9045C89.0953 21.5159 89.7443 21.8355 90.6512 21.8355C91.3969 21.8355 92.0109 21.641 92.5632 21.2241C93.1155 20.8072 93.5682 20.293 93.9565 19.6496C94.3448 19.0062 94.6041 18.3322 94.7976 17.5609C94.9867 16.8581 95.0846 16.1343 95.0891 15.407C95.0891 14.3147 94.9265 13.4614 94.5705 12.8361C94.2144 12.2107 93.5654 11.905 92.6585 11.905V11.9064ZM105.363 25.5251H100.456L104.606 8.24186H109.531L105.363 25.5251ZM107.729 6.12263C107.061 6.13145 106.41 5.91594 105.881 5.51118C105.33 5.09428 105.04 4.48283 105.04 3.64903C105.04 3.19878 105.138 2.74992 105.332 2.36359C105.512 1.9675 105.765 1.60799 106.077 1.30328C106.4 1.02006 106.76 0.78164 107.147 0.594552C107.567 0.433352 107.988 0.337463 108.444 0.337463C109.111 0.328643 109.763 0.544152 110.291 0.948915C110.842 1.36581 111.132 1.97727 111.132 2.81106C111.132 3.26131 111.034 3.71017 110.841 4.0965C110.66 4.49259 110.407 4.8521 110.095 5.15681C109.772 5.44003 109.413 5.67845 109.025 5.86554C108.636 6.06009 108.215 6.12263 107.729 6.12263ZM113.072 9.01312L114.303 8.62819L115.825 8.24325C116.445 8.1058 117.073 8.00924 117.705 7.9542L120.071 7.82635C122.664 7.82635 124.445 8.56565 125.417 10.0748C126.39 11.552 126.584 13.6087 125.936 16.1782L123.668 25.4945H118.742L120.915 16.3714L121.237 14.701C121.302 14.1549 121.302 13.7046 121.205 13.2877C121.125 12.8936 120.907 12.5405 120.588 12.2913C120.263 12.0343 119.778 11.9064 119.098 11.9064C118.451 11.9064 117.802 11.9703 117.154 12.101L113.93 25.4653H109.004L113.072 9.01312Z" fill="#A9A9A9"/>
</svg>
