<svg width="124" height="34" viewBox="0 0 124 34" fill="none" xmlns="http://www.w3.org/2000/svg">
<path d="M16.9575 33.5789C26.1935 33.5789 33.6807 26.1562 33.6807 16.9999C33.6807 7.84356 26.1935 0.420898 16.9575 0.420898C7.72158 0.420898 0.234375 7.84356 0.234375 16.9999C0.234375 26.1562 7.72158 33.5789 16.9575 33.5789Z" fill="#A9A9A9"/>
<path d="M18.7388 18.5299V18.5272C18.6231 18.5352 18.0263 18.5698 16.6981 18.5698C15.6361 18.5698 14.8914 18.5405 14.6279 18.5272V18.5299C10.5439 18.3513 7.49768 17.6476 7.49768 16.8027C7.49768 15.9604 10.5466 15.254 14.6279 15.0755V17.8288C14.894 17.8475 15.6603 17.8928 16.7169 17.8928C17.9859 17.8928 18.6205 17.8395 18.7388 17.8288V15.0781C22.8147 15.2594 25.8528 15.963 25.8528 16.8053C25.8528 17.6476 22.812 18.3513 18.7388 18.5325V18.5299ZM18.7388 14.7929V12.3301H24.4252V8.57446H8.94415V12.3301H14.6306V14.7929C10.0088 15.0035 6.53516 15.9097 6.53516 16.9972C6.53516 18.0847 10.0115 18.991 14.6306 19.2042V27.0992H18.7414V19.2042C23.3551 18.9936 26.8234 18.0874 26.8234 16.9999C26.8234 15.9151 23.3551 15.0062 18.7414 14.7956" fill="#F8F8FC"/>
<path d="M47.8842 9.60065V13.5828H51.788V16.5708H47.8573V22.6293C47.8573 23.9674 48.602 24.6204 49.6936 24.6204C50.2394 24.6204 50.8712 24.4498 51.3874 24.194L52.3634 27.1526C51.3606 27.5497 50.5271 27.7203 49.4651 27.7497C46.3947 27.8643 44.3863 26.1291 44.3863 22.6293V16.5708H41.7461V13.5828H44.3863V9.97115L47.8842 9.60065ZM115.188 13.3962L115.446 15.0168C116.538 13.2816 118 13.0257 119.436 13.0257C120.899 13.0257 122.305 13.5935 123.079 14.3611L121.501 17.3758C120.783 16.7787 120.124 16.4642 118.976 16.4642C117.14 16.4642 115.446 17.4317 115.446 20.0199V27.4165H111.946V13.3909L115.188 13.3962ZM106.609 18.7724C106.38 16.9519 104.944 16.0404 102.936 16.0404C101.043 16.0404 99.492 16.9519 98.9758 18.7724H106.609ZM98.9193 21.6458C99.1478 23.381 100.67 24.6337 103.138 24.6337C104.428 24.6337 106.122 24.1486 106.926 23.325L109.163 25.516C107.671 27.0513 105.232 27.7923 103.079 27.7923C98.2015 27.7923 95.3004 24.8043 95.3004 20.3104C95.3004 16.043 98.2283 12.9698 102.82 12.9698C107.555 12.9698 110.513 15.8724 109.967 21.6458H98.9193ZM83.4813 7.50562V15.2994C84.745 13.6788 86.2936 13.1937 87.9014 13.1937C91.9182 13.1937 93.698 15.8964 93.698 20.0225V27.4191H90.1975V20.0519C90.1975 17.4904 88.8478 16.4109 86.9819 16.4109C84.9144 16.4109 83.4813 18.1461 83.4813 20.2518V27.4218H79.9808V7.50828L83.4813 7.50562ZM74.1841 9.44073V13.4229H78.088V16.4109H74.1572V22.4694C74.1572 23.8075 74.9047 24.4605 75.9936 24.4605C76.5393 24.4605 77.1712 24.2899 77.6874 24.034L78.6633 26.9927C77.6605 27.3898 76.827 27.5604 75.765 27.5897C72.6946 27.7043 70.6863 25.9665 70.6863 22.4694V16.4109H68.046V13.4229H70.6863V9.81122L74.1841 9.44073ZM64.5132 18.7724C64.2847 16.9519 62.849 16.0404 60.8406 16.0404C58.9478 16.0404 57.3965 16.9519 56.8803 18.7724H64.5132ZM56.8238 21.6458C57.0523 23.381 58.5741 24.6337 61.0422 24.6337C62.3328 24.6337 64.0266 24.1486 64.8305 23.325L67.0674 25.516C65.5752 27.0513 63.1366 27.7923 60.9831 27.7923C56.1033 27.7923 53.2049 24.8043 53.2049 20.3104C53.2049 16.043 56.1328 12.9698 60.7223 12.9698C65.4569 12.9698 68.4117 15.8724 67.8686 21.6458H56.8238Z" fill="#A9A9A9"/>
</svg>
